<mxfile host="app.diagrams.net" modified="2021-05-28T01:33:06.836Z" agent="5.0 (Windows NT 10.0; Win64; x64) AppleWebKit/537.36 (KHTML, like Gecko) Chrome/90.0.4430.212 Safari/537.36" etag="XzZ-Iaqg1nclJfmeK1T0" version="14.7.2" type="github">
  <diagram id="7hfc12y7ZKk-f09IoSAR" name="设备入网">
    <mxGraphModel dx="782" dy="403" grid="1" gridSize="10" guides="1" tooltips="1" connect="1" arrows="1" fold="1" page="1" pageScale="1" pageWidth="827" pageHeight="1169" math="0" shadow="0">
      <root>
        <mxCell id="0" />
        <mxCell id="1" parent="0" />
        <mxCell id="XLrarhxuTcnEWWh8VaGa-13" value="" style="rounded=0;whiteSpace=wrap;html=1;dashed=1;fillColor=#d5e8d4;strokeColor=#82b366;" vertex="1" parent="1">
          <mxGeometry x="80" y="60" width="470" height="330" as="geometry" />
        </mxCell>
        <mxCell id="XLrarhxuTcnEWWh8VaGa-5" value="" style="rounded=0;whiteSpace=wrap;html=1;dashed=1;fillColor=none;strokeColor=#3333FF;" vertex="1" parent="1">
          <mxGeometry x="90" y="240" width="440" height="130" as="geometry" />
        </mxCell>
        <mxCell id="qmOQSDGfmGghrm2BuBOK-1" value="设备管理及消息分发服务" style="rounded=0;whiteSpace=wrap;html=1;" parent="1" vertex="1">
          <mxGeometry x="110" y="130" width="100" height="60" as="geometry" />
        </mxCell>
        <mxCell id="qmOQSDGfmGghrm2BuBOK-2" value="数据收发及转换服务" style="rounded=0;whiteSpace=wrap;html=1;" parent="1" vertex="1">
          <mxGeometry x="400" y="130" width="100" height="60" as="geometry" />
        </mxCell>
        <mxCell id="qmOQSDGfmGghrm2BuBOK-3" value="任务调度服务" style="rounded=0;whiteSpace=wrap;html=1;" parent="1" vertex="1">
          <mxGeometry x="260" y="130" width="100" height="60" as="geometry" />
        </mxCell>
        <mxCell id="qmOQSDGfmGghrm2BuBOK-4" value="通用设备业务处理服务" style="rounded=0;whiteSpace=wrap;html=1;" parent="1" vertex="1">
          <mxGeometry x="110" y="280" width="100" height="60" as="geometry" />
        </mxCell>
        <mxCell id="qmOQSDGfmGghrm2BuBOK-5" value="环境设备业务处理服务" style="rounded=0;whiteSpace=wrap;html=1;" parent="1" vertex="1">
          <mxGeometry x="260" y="280" width="100" height="60" as="geometry" />
        </mxCell>
        <mxCell id="qmOQSDGfmGghrm2BuBOK-6" value="安防设备业务处理服务" style="rounded=0;whiteSpace=wrap;html=1;" parent="1" vertex="1">
          <mxGeometry x="400" y="280" width="100" height="60" as="geometry" />
        </mxCell>
        <mxCell id="qmOQSDGfmGghrm2BuBOK-8" value="" style="html=1;verticalLabelPosition=bottom;align=center;labelBackgroundColor=#ffffff;verticalAlign=top;strokeWidth=2;strokeColor=#0080F0;shadow=0;dashed=0;shape=mxgraph.ios7.icons.lightbulb;" parent="1" vertex="1">
          <mxGeometry x="660" y="145.15" width="22.8" height="29.7" as="geometry" />
        </mxCell>
        <mxCell id="XLrarhxuTcnEWWh8VaGa-1" value="1.设备入网" style="endArrow=classic;html=1;exitX=0.058;exitY=0.522;exitDx=0;exitDy=0;exitPerimeter=0;entryX=1;entryY=0.5;entryDx=0;entryDy=0;" edge="1" parent="1" source="qmOQSDGfmGghrm2BuBOK-8" target="qmOQSDGfmGghrm2BuBOK-2">
          <mxGeometry width="50" height="50" relative="1" as="geometry">
            <mxPoint x="560" y="200" as="sourcePoint" />
            <mxPoint x="610" y="150" as="targetPoint" />
          </mxGeometry>
        </mxCell>
        <mxCell id="XLrarhxuTcnEWWh8VaGa-2" value="" style="endArrow=classic;html=1;exitX=1;exitY=0.75;exitDx=0;exitDy=0;" edge="1" parent="1" source="qmOQSDGfmGghrm2BuBOK-2">
          <mxGeometry width="50" height="50" relative="1" as="geometry">
            <mxPoint x="660" y="270" as="sourcePoint" />
            <mxPoint x="660" y="175" as="targetPoint" />
          </mxGeometry>
        </mxCell>
        <mxCell id="XLrarhxuTcnEWWh8VaGa-3" value="2.入网数据回复" style="edgeLabel;html=1;align=center;verticalAlign=middle;resizable=0;points=[];" vertex="1" connectable="0" parent="XLrarhxuTcnEWWh8VaGa-2">
          <mxGeometry x="-0.2667" y="-1" relative="1" as="geometry">
            <mxPoint x="31" y="-1" as="offset" />
          </mxGeometry>
        </mxCell>
        <mxCell id="XLrarhxuTcnEWWh8VaGa-4" value="" style="endArrow=classic;html=1;exitX=0.4;exitY=1.044;exitDx=0;exitDy=0;exitPerimeter=0;entryX=0.36;entryY=-0.027;entryDx=0;entryDy=0;entryPerimeter=0;" edge="1" parent="1" source="qmOQSDGfmGghrm2BuBOK-2" target="XLrarhxuTcnEWWh8VaGa-5">
          <mxGeometry width="50" height="50" relative="1" as="geometry">
            <mxPoint x="390" y="250" as="sourcePoint" />
            <mxPoint x="310" y="250" as="targetPoint" />
          </mxGeometry>
        </mxCell>
        <mxCell id="XLrarhxuTcnEWWh8VaGa-6" value="3.转发到业务处理模块" style="edgeLabel;html=1;align=center;verticalAlign=middle;resizable=0;points=[];" vertex="1" connectable="0" parent="XLrarhxuTcnEWWh8VaGa-4">
          <mxGeometry x="-0.1719" y="-4" relative="1" as="geometry">
            <mxPoint as="offset" />
          </mxGeometry>
        </mxCell>
        <mxCell id="XLrarhxuTcnEWWh8VaGa-7" value="&lt;font style=&quot;font-size: 15px&quot;&gt;设备业务处理模块&lt;/font&gt;" style="text;html=1;strokeColor=none;fillColor=none;align=center;verticalAlign=middle;whiteSpace=wrap;rounded=0;dashed=1;" vertex="1" parent="1">
          <mxGeometry x="240" y="240" width="160" height="20" as="geometry" />
        </mxCell>
        <mxCell id="XLrarhxuTcnEWWh8VaGa-8" value="" style="rounded=0;whiteSpace=wrap;html=1;dashed=1;fillColor=none;strokeColor=#3333FF;" vertex="1" parent="1">
          <mxGeometry x="90" y="100" width="440" height="100" as="geometry" />
        </mxCell>
        <mxCell id="XLrarhxuTcnEWWh8VaGa-9" value="&lt;font style=&quot;font-size: 15px&quot;&gt;设备管理及调度模块&lt;/font&gt;" style="text;html=1;strokeColor=none;fillColor=none;align=center;verticalAlign=middle;whiteSpace=wrap;rounded=0;dashed=1;" vertex="1" parent="1">
          <mxGeometry x="230" y="100" width="160" height="20" as="geometry" />
        </mxCell>
        <mxCell id="XLrarhxuTcnEWWh8VaGa-11" value="数据接口模块" style="rounded=0;whiteSpace=wrap;html=1;fillColor=#dae8fc;strokeColor=#6c8ebf;" vertex="1" parent="1">
          <mxGeometry x="690" y="280" width="100" height="60" as="geometry" />
        </mxCell>
        <mxCell id="XLrarhxuTcnEWWh8VaGa-12" value="4、入网信息存储" style="endArrow=classic;html=1;exitX=1;exitY=0.5;exitDx=0;exitDy=0;entryX=0;entryY=0.5;entryDx=0;entryDy=0;" edge="1" parent="1" source="XLrarhxuTcnEWWh8VaGa-5" target="XLrarhxuTcnEWWh8VaGa-11">
          <mxGeometry width="50" height="50" relative="1" as="geometry">
            <mxPoint x="540" y="340" as="sourcePoint" />
            <mxPoint x="590" y="305" as="targetPoint" />
          </mxGeometry>
        </mxCell>
        <mxCell id="XLrarhxuTcnEWWh8VaGa-14" value="&lt;font style=&quot;font-size: 17px&quot; color=&quot;#ff6666&quot;&gt;设备控制模块&lt;/font&gt;" style="text;html=1;strokeColor=none;fillColor=none;align=center;verticalAlign=middle;whiteSpace=wrap;rounded=0;dashed=1;" vertex="1" parent="1">
          <mxGeometry x="260" y="60" width="130" height="20" as="geometry" />
        </mxCell>
        <mxCell id="XLrarhxuTcnEWWh8VaGa-15" value="外部通信模块" style="rounded=0;whiteSpace=wrap;html=1;fillColor=#f8cecc;strokeColor=#b85450;" vertex="1" parent="1">
          <mxGeometry x="690" y="370" width="100" height="60" as="geometry" />
        </mxCell>
        <mxCell id="XLrarhxuTcnEWWh8VaGa-16" value="5、推送、同步入网信息" style="endArrow=classic;html=1;exitX=1.004;exitY=0.925;exitDx=0;exitDy=0;exitPerimeter=0;entryX=0;entryY=0.5;entryDx=0;entryDy=0;" edge="1" parent="1" source="XLrarhxuTcnEWWh8VaGa-13" target="XLrarhxuTcnEWWh8VaGa-15">
          <mxGeometry width="50" height="50" relative="1" as="geometry">
            <mxPoint x="570" y="430" as="sourcePoint" />
            <mxPoint x="620" y="380" as="targetPoint" />
          </mxGeometry>
        </mxCell>
      </root>
    </mxGraphModel>
  </diagram>
</mxfile>
